<svg width="56" height="64" viewBox="0 0 56 64" fill="none" xmlns="http://www.w3.org/2000/svg">
<path fill-rule="evenodd" clip-rule="evenodd" d="M41.6566 28.2514L31.2602 17.804C27.5212 14.0653 21.4788 14.0653 17.7398 17.804L7.34342 28.2514C7.00852 28.5855 6.90792 29.0899 7.08883 29.5278C7.26974 29.9658 7.69625 30.2504 8.16814 30.2479H9.93003V41.6371C9.93691 46.2529 13.6588 49.9931 18.2522 50H20.039C20.6829 49.9931 21.2012 49.4667 21.2011 48.8196V39.2261H27.7989V48.8196C27.7988 49.4667 28.3171 49.9931 28.961 50H30.7478C35.3412 49.9931 39.0631 46.2529 39.07 41.6371V30.2479H40.8319C41.3037 30.2504 41.7303 29.9658 41.9112 29.5278C42.0921 29.0899 41.9915 28.5855 41.6566 28.2514ZM19.3893 19.4615C20.744 18.0981 22.5827 17.332 24.5 17.332C26.4173 17.332 28.256 18.0981 29.6107 19.4615L38.0078 27.8998H10.9922L19.3893 19.4615ZM30.7478 47.6518C34.0507 47.6449 36.7264 44.9561 36.7333 41.6371V30.2479H12.2667V41.6371C12.2736 44.9561 14.9493 47.6449 18.2522 47.6518H18.8644V38.0458C18.8713 37.3988 19.3952 36.878 20.039 36.878H28.961C29.6048 36.878 30.1287 37.3988 30.1356 38.0458V47.6518H30.7478Z" fill="white"/>
</svg>
